<svg xmlns="http://www.w3.org/2000/svg" xmlns:xlink="http://www.w3.org/1999/xlink" width="2000" zoomAndPan="magnify" viewBox="0 0 1500 1499.999933" height="2000" preserveAspectRatio="xMidYMid meet" version="1.0"><defs><clipPath id="ac16484d87"><path d="M 347 112.824219 L 1174 112.824219 L 1174 1387.074219 L 347 1387.074219 Z M 347 112.824219 " clip-rule="nonzero"/></clipPath></defs><g clip-path="url(#ac16484d87)"><path fill="#ffffff" d="M 836.628906 768.332031 C 892.015625 724.011719 991.308594 718.339844 1173.703125 712.113281 C 991.308594 705.886719 892.015625 700.214844 836.628906 655.894531 C 856.222656 623.308594 891.503906 584.617188 942.519531 529.996094 C 887.898438 581.011719 849.207031 616.292969 816.621094 635.886719 C 772.300781 580.5 766.628906 295.222656 760.402344 112.824219 C 754.175781 295.222656 748.503906 580.5 704.183594 635.886719 C 671.597656 616.292969 632.90625 581.011719 578.285156 529.996094 C 629.300781 584.617188 664.582031 623.308594 684.175781 655.894531 C 628.789062 700.214844 529.496094 705.886719 347.101562 712.113281 C 529.496094 718.339844 628.789062 724.011719 684.175781 768.332031 C 664.582031 800.917969 629.300781 839.609375 578.285156 894.230469 C 632.90625 843.214844 671.597656 807.933594 704.183594 788.339844 C 748.503906 843.726562 754.175781 1204.777344 760.402344 1387.171875 C 766.628906 1204.777344 772.300781 843.726562 816.621094 788.339844 C 849.207031 807.933594 887.898438 843.214844 942.519531 894.230469 C 891.503906 839.609375 856.222656 800.917969 836.628906 768.332031 Z M 836.628906 768.332031 " fill-opacity="1" fill-rule="nonzero"/></g><path fill="#ffffff" d="M 663.390625 750.003906 C 648.257812 756.324219 633.390625 762.652344 618.839844 768.976562 C 296.445312 908.792969 109.222656 1046.976562 194.257812 1087.992188 C 283.566406 1131.019531 640.242188 1051.109375 1001.398438 908.574219 C 1007.023438 906.351562 1047.445312 890.019531 1053.085938 887.773438 C 1047.445312 890.019531 1007.050781 906.367188 1001.398438 908.574219 C 668.546875 1039.300781 335.222656 1109.855469 246.136719 1066.941406 C 161.691406 1026.210938 326.238281 897.558594 619.269531 768.96875 C 633.75 762.640625 648.421875 756.3125 663.507812 750 Z M 663.390625 750.003906 " fill-opacity="1" fill-rule="nonzero"/><path fill="#ffffff" d="M 486.167969 530.3125 C 488.367188 529.46875 490.445312 528.625 492.507812 527.808594 C 492.746094 527.703125 493.027344 527.589844 493.289062 527.5 C 494.035156 527.234375 494.753906 526.957031 495.398438 526.671875 C 508.960938 521.378906 522.484375 516.191406 535.933594 511.09375 C 854.074219 391.035156 1163.054688 328.171875 1248.300781 369.261719 C 1338.824219 412.917969 1143.085938 557.707031 809.609375 695.074219 C 1171.921875 546.160156 1390.859375 391.910156 1300.226562 348.203125 C 1214.417969 306.835938 881.785156 378.996094 535.484375 511.125 C 522.152344 516.21875 508.75 521.402344 495.398438 526.671875 C 494.753906 526.957031 494.035156 527.234375 493.289062 527.5 C 493.027344 527.589844 492.746094 527.703125 492.507812 527.808594 C 490.445312 528.625 488.367188 529.46875 486.257812 530.292969 Z M 486.167969 530.3125 " fill-opacity="1" fill-rule="nonzero"/><path fill="#ffffff" d="M 449.441406 352.144531 C 446.558594 411.261719 444.222656 413.597656 385.105469 416.480469 C 444.222656 419.359375 446.558594 421.695312 449.441406 480.8125 C 452.320312 421.695312 454.65625 419.359375 513.777344 416.480469 C 454.65625 413.597656 452.320312 411.261719 449.441406 352.144531 Z M 449.441406 352.144531 " fill-opacity="1" fill-rule="nonzero"/><path fill="#ffffff" d="M 1082.648438 946.460938 C 1079.769531 1005.578125 1077.433594 1007.914062 1018.316406 1010.796875 C 1077.433594 1013.675781 1079.769531 1016.011719 1082.648438 1075.128906 C 1085.53125 1016.011719 1087.867188 1013.675781 1146.984375 1010.796875 C 1087.867188 1007.914062 1085.53125 1005.578125 1082.648438 946.460938 Z M 1082.648438 946.460938 " fill-opacity="1" fill-rule="nonzero"/><path fill="#ffffff" d="M 988.75 1075.128906 C 986.738281 1116.414062 985.105469 1118.042969 943.824219 1120.054688 C 985.105469 1122.066406 986.738281 1123.699219 988.75 1164.980469 C 990.761719 1123.699219 992.390625 1122.066406 1033.675781 1120.054688 C 992.390625 1118.042969 990.761719 1116.414062 988.75 1075.128906 Z M 988.75 1075.128906 " fill-opacity="1" fill-rule="nonzero"/><path fill="#ffffff" d="M 339.53125 451.453125 C 335.117188 542.015625 331.539062 545.59375 240.976562 550.007812 C 331.539062 554.421875 335.117188 558 339.53125 648.566406 C 343.945312 558 347.523438 554.421875 438.085938 550.007812 C 347.523438 545.59375 343.945312 542.015625 339.53125 451.453125 Z M 339.53125 451.453125 " fill-opacity="1" fill-rule="nonzero"/></svg>